<mxfile host="65bd71144e" modified="2020-10-07T11:55:45.794Z" agent="5.0 (Windows NT 10.0; Win64; x64) AppleWebKit/537.36 (KHTML, like Gecko) Code/1.49.3 Chrome/83.0.4103.122 Electron/9.2.1 Safari/537.36" etag="zsNi60ZMmPsehF72uzkj" version="13.6.5">
    <diagram id="prtHgNgQTEPvFCAcTncT" name="Page-1">
        <mxGraphModel dx="1503" dy="739" grid="1" gridSize="10" guides="1" tooltips="1" connect="1" arrows="1" fold="1" page="1" pageScale="1" pageWidth="827" pageHeight="1169" math="0" shadow="0">
            <root>
                <mxCell id="0"/>
                <mxCell id="1" parent="0"/>
                <mxCell id="dNxyNK7c78bLwvsdeMH5-19" value="Build Process Atrtifacts" style="swimlane;html=1;childLayout=stackLayout;resizeParent=1;resizeParentMax=0;horizontal=0;startSize=20;horizontalStack=0;fontStyle=0;fillColor=#647687;strokeColor=#314354;fontColor=#ffffff;" parent="1" vertex="1">
                    <mxGeometry x="120" y="120" width="1120" height="370" as="geometry">
                        <mxRectangle x="120" y="120" width="30" height="50" as="alternateBounds"/>
                    </mxGeometry>
                </mxCell>
                <mxCell id="dNxyNK7c78bLwvsdeMH5-20" value="User" style="swimlane;html=1;startSize=20;horizontal=0;fontStyle=0;fillColor=#60a917;strokeColor=#2D7600;fontColor=#ffffff;" parent="dNxyNK7c78bLwvsdeMH5-19" vertex="1">
                    <mxGeometry x="20" width="1100" height="120" as="geometry">
                        <mxRectangle x="20" width="1100" height="20" as="alternateBounds"/>
                    </mxGeometry>
                </mxCell>
                <mxCell id="dNxyNK7c78bLwvsdeMH5-25" value="" style="edgeStyle=orthogonalEdgeStyle;rounded=0;orthogonalLoop=1;jettySize=auto;html=1;fontStyle=0;fontSize=13;" parent="dNxyNK7c78bLwvsdeMH5-20" source="dNxyNK7c78bLwvsdeMH5-23" target="dNxyNK7c78bLwvsdeMH5-24" edge="1">
                    <mxGeometry relative="1" as="geometry"/>
                </mxCell>
                <mxCell id="dNxyNK7c78bLwvsdeMH5-23" value="" style="ellipse;whiteSpace=wrap;html=1;fillColor=#d5e8d4;strokeColor=#82b366;fontColor=#000000;fontStyle=0;fontSize=13;" parent="dNxyNK7c78bLwvsdeMH5-20" vertex="1">
                    <mxGeometry x="40" y="40" width="40" height="40" as="geometry"/>
                </mxCell>
                <mxCell id="fCxBIMffFWd8VoigTxvP-1" style="edgeStyle=orthogonalEdgeStyle;rounded=0;orthogonalLoop=1;jettySize=auto;html=1;exitX=1;exitY=0.5;exitDx=0;exitDy=0;entryX=0;entryY=0.5;entryDx=0;entryDy=0;fontStyle=0;fontSize=13;" parent="dNxyNK7c78bLwvsdeMH5-20" source="dNxyNK7c78bLwvsdeMH5-24" target="dNxyNK7c78bLwvsdeMH5-30" edge="1">
                    <mxGeometry relative="1" as="geometry"/>
                </mxCell>
                <mxCell id="dNxyNK7c78bLwvsdeMH5-24" value="Changes" style="rounded=0;whiteSpace=wrap;html=1;fontFamily=Helvetica;fontSize=13;align=center;fillColor=#d5e8d4;strokeColor=#82b366;fontColor=#000000;fontStyle=0" parent="dNxyNK7c78bLwvsdeMH5-20" vertex="1">
                    <mxGeometry x="120" y="30" width="80" height="60" as="geometry"/>
                </mxCell>
                <mxCell id="dNxyNK7c78bLwvsdeMH5-30" value="Commit" style="rounded=0;whiteSpace=wrap;html=1;fontFamily=Helvetica;fontSize=13;align=center;fillColor=#d5e8d4;strokeColor=#82b366;fontColor=#000000;fontStyle=0" parent="dNxyNK7c78bLwvsdeMH5-20" vertex="1">
                    <mxGeometry x="240" y="30" width="80" height="60" as="geometry"/>
                </mxCell>
                <mxCell id="fCxBIMffFWd8VoigTxvP-3" value="" style="edgeStyle=orthogonalEdgeStyle;rounded=0;orthogonalLoop=1;jettySize=auto;html=1;fontStyle=0;fontSize=13;" parent="dNxyNK7c78bLwvsdeMH5-20" source="dNxyNK7c78bLwvsdeMH5-30" target="fCxBIMffFWd8VoigTxvP-2" edge="1">
                    <mxGeometry relative="1" as="geometry"/>
                </mxCell>
                <mxCell id="fCxBIMffFWd8VoigTxvP-2" value="Build" style="rounded=0;whiteSpace=wrap;html=1;fontFamily=Helvetica;fontSize=13;align=center;fillColor=#dae8fc;strokeColor=#6c8ebf;fontColor=#000000;fontStyle=0" parent="dNxyNK7c78bLwvsdeMH5-20" vertex="1">
                    <mxGeometry x="360" y="30" width="80" height="60" as="geometry"/>
                </mxCell>
                <mxCell id="fCxBIMffFWd8VoigTxvP-16" value="Deploy App" style="rounded=0;whiteSpace=wrap;html=1;fontFamily=Helvetica;fontSize=13;align=center;fillColor=#e1d5e7;strokeColor=#9673a6;fontColor=#000000;fontStyle=0" parent="dNxyNK7c78bLwvsdeMH5-20" vertex="1">
                    <mxGeometry x="630" y="30" width="80" height="60" as="geometry"/>
                </mxCell>
                <mxCell id="dNxyNK7c78bLwvsdeMH5-21" value="server" style="swimlane;html=1;startSize=20;horizontal=0;fontStyle=0;fillColor=#1ba1e2;strokeColor=#006EAF;fontColor=#ffffff;" parent="dNxyNK7c78bLwvsdeMH5-19" vertex="1">
                    <mxGeometry x="20" y="120" width="1100" height="120" as="geometry">
                        <mxRectangle x="20" y="120" width="1100" height="20" as="alternateBounds"/>
                    </mxGeometry>
                </mxCell>
                <mxCell id="fCxBIMffFWd8VoigTxvP-29" value="Download Docker" style="whiteSpace=wrap;html=1;rounded=0;fillColor=#e1d5e7;strokeColor=#9673a6;fontColor=#000000;fontStyle=0;fontSize=13;" parent="dNxyNK7c78bLwvsdeMH5-21" vertex="1">
                    <mxGeometry x="960" y="30" width="80" height="60" as="geometry"/>
                </mxCell>
                <mxCell id="fCxBIMffFWd8VoigTxvP-23" value="Download App Code" style="whiteSpace=wrap;html=1;rounded=0;fillColor=#dae8fc;strokeColor=#6c8ebf;fontColor=#000000;fontStyle=0;fontSize=13;" parent="dNxyNK7c78bLwvsdeMH5-21" vertex="1">
                    <mxGeometry x="800" y="30" width="80" height="60" as="geometry"/>
                </mxCell>
                <mxCell id="fCxBIMffFWd8VoigTxvP-18" value="Deploy App" style="whiteSpace=wrap;html=1;rounded=0;fillColor=#e1d5e7;strokeColor=#9673a6;fontColor=#000000;fontStyle=0;fontSize=13;" parent="dNxyNK7c78bLwvsdeMH5-21" vertex="1">
                    <mxGeometry x="630" y="30" width="80" height="60" as="geometry"/>
                </mxCell>
                <mxCell id="fCxBIMffFWd8VoigTxvP-4" value="Generate App Code" style="rounded=0;whiteSpace=wrap;html=1;fontFamily=Helvetica;fontSize=13;align=center;fillColor=#dae8fc;strokeColor=#6c8ebf;fontColor=#000000;fontStyle=0" parent="dNxyNK7c78bLwvsdeMH5-21" vertex="1">
                    <mxGeometry x="360" y="30" width="80" height="60" as="geometry"/>
                </mxCell>
                <mxCell id="fCxBIMffFWd8VoigTxvP-7" value="" style="edgeStyle=orthogonalEdgeStyle;rounded=0;orthogonalLoop=1;jettySize=auto;html=1;fontStyle=0;fontSize=13;" parent="dNxyNK7c78bLwvsdeMH5-21" source="fCxBIMffFWd8VoigTxvP-4" target="fCxBIMffFWd8VoigTxvP-6" edge="1">
                    <mxGeometry relative="1" as="geometry"/>
                </mxCell>
                <mxCell id="fCxBIMffFWd8VoigTxvP-6" value="Build App Docker" style="rounded=0;whiteSpace=wrap;html=1;fontFamily=Helvetica;fontSize=13;align=center;fillColor=#e1d5e7;strokeColor=#9673a6;fontColor=#000000;fontStyle=0" parent="dNxyNK7c78bLwvsdeMH5-21" vertex="1">
                    <mxGeometry x="490" y="30" width="80" height="60" as="geometry"/>
                </mxCell>
                <mxCell id="dNxyNK7c78bLwvsdeMH5-22" value="storage" style="swimlane;html=1;startSize=20;horizontal=0;fontStyle=0;fillColor=#0050ef;strokeColor=#001DBC;fontColor=#ffffff;" parent="dNxyNK7c78bLwvsdeMH5-19" vertex="1">
                    <mxGeometry x="20" y="240" width="1100" height="130" as="geometry">
                        <mxRectangle x="20" y="140" width="1100" height="20" as="alternateBounds"/>
                    </mxGeometry>
                </mxCell>
                <mxCell id="fCxBIMffFWd8VoigTxvP-10" value="App code ZIP" style="shape=note;whiteSpace=wrap;html=1;backgroundOutline=1;darkOpacity=0.05;rounded=0;fillColor=#dae8fc;strokeColor=#6c8ebf;fontColor=#000000;fontStyle=0;fontSize=13;" parent="dNxyNK7c78bLwvsdeMH5-22" vertex="1">
                    <mxGeometry x="365" y="30" width="70" height="80" as="geometry"/>
                </mxCell>
                <mxCell id="fCxBIMffFWd8VoigTxvP-12" value="App Docker" style="shape=note;whiteSpace=wrap;html=1;backgroundOutline=1;darkOpacity=0.05;rounded=0;fillColor=#e1d5e7;strokeColor=#9673a6;fontColor=#000000;fontStyle=0;fontSize=13;" parent="dNxyNK7c78bLwvsdeMH5-22" vertex="1">
                    <mxGeometry x="495" y="30" width="70" height="80" as="geometry"/>
                </mxCell>
                <mxCell id="fCxBIMffFWd8VoigTxvP-5" value="" style="edgeStyle=orthogonalEdgeStyle;rounded=0;orthogonalLoop=1;jettySize=auto;html=1;fontStyle=0;fontSize=13;" parent="dNxyNK7c78bLwvsdeMH5-19" source="fCxBIMffFWd8VoigTxvP-2" target="fCxBIMffFWd8VoigTxvP-4" edge="1">
                    <mxGeometry relative="1" as="geometry"/>
                </mxCell>
                <mxCell id="fCxBIMffFWd8VoigTxvP-11" value="" style="edgeStyle=orthogonalEdgeStyle;rounded=0;orthogonalLoop=1;jettySize=auto;html=1;fontStyle=0;fontSize=13;" parent="dNxyNK7c78bLwvsdeMH5-19" source="fCxBIMffFWd8VoigTxvP-4" target="fCxBIMffFWd8VoigTxvP-10" edge="1">
                    <mxGeometry relative="1" as="geometry"/>
                </mxCell>
                <mxCell id="fCxBIMffFWd8VoigTxvP-13" value="" style="edgeStyle=orthogonalEdgeStyle;rounded=0;orthogonalLoop=1;jettySize=auto;html=1;fontStyle=0;fontSize=13;" parent="dNxyNK7c78bLwvsdeMH5-19" source="fCxBIMffFWd8VoigTxvP-6" target="fCxBIMffFWd8VoigTxvP-12" edge="1">
                    <mxGeometry relative="1" as="geometry"/>
                </mxCell>
                <mxCell id="fCxBIMffFWd8VoigTxvP-19" value="" style="edgeStyle=orthogonalEdgeStyle;rounded=0;orthogonalLoop=1;jettySize=auto;html=1;fontStyle=0;fontSize=13;" parent="dNxyNK7c78bLwvsdeMH5-19" source="fCxBIMffFWd8VoigTxvP-16" target="fCxBIMffFWd8VoigTxvP-18" edge="1">
                    <mxGeometry relative="1" as="geometry"/>
                </mxCell>
                <mxCell id="fCxBIMffFWd8VoigTxvP-34" style="edgeStyle=orthogonalEdgeStyle;rounded=0;orthogonalLoop=1;jettySize=auto;html=1;exitX=0;exitY=0;exitDx=70;exitDy=55;exitPerimeter=0;fontStyle=0;fontSize=13;" parent="dNxyNK7c78bLwvsdeMH5-19" source="fCxBIMffFWd8VoigTxvP-12" target="fCxBIMffFWd8VoigTxvP-18" edge="1">
                    <mxGeometry relative="1" as="geometry"/>
                </mxCell>
                <mxCell id="fCxBIMffFWd8VoigTxvP-35" style="edgeStyle=orthogonalEdgeStyle;rounded=0;orthogonalLoop=1;jettySize=auto;html=1;exitX=0.5;exitY=1;exitDx=0;exitDy=0;exitPerimeter=0;fontStyle=0;fontSize=13;" parent="dNxyNK7c78bLwvsdeMH5-19" source="fCxBIMffFWd8VoigTxvP-10" target="fCxBIMffFWd8VoigTxvP-23" edge="1">
                    <mxGeometry relative="1" as="geometry">
                        <Array as="points">
                            <mxPoint x="420" y="360"/>
                            <mxPoint x="860" y="360"/>
                        </Array>
                    </mxGeometry>
                </mxCell>
                <mxCell id="fCxBIMffFWd8VoigTxvP-36" style="edgeStyle=orthogonalEdgeStyle;rounded=0;orthogonalLoop=1;jettySize=auto;html=1;exitX=0;exitY=0;exitDx=70;exitDy=55;exitPerimeter=0;fontStyle=0;fontSize=13;" parent="dNxyNK7c78bLwvsdeMH5-19" source="fCxBIMffFWd8VoigTxvP-12" target="fCxBIMffFWd8VoigTxvP-29" edge="1">
                    <mxGeometry relative="1" as="geometry"/>
                </mxCell>
                <mxCell id="fCxBIMffFWd8VoigTxvP-37" style="edgeStyle=orthogonalEdgeStyle;rounded=0;orthogonalLoop=1;jettySize=auto;html=1;entryX=0;entryY=0.75;entryDx=0;entryDy=0;fontStyle=0;fontSize=13;" parent="dNxyNK7c78bLwvsdeMH5-19" source="fCxBIMffFWd8VoigTxvP-10" target="fCxBIMffFWd8VoigTxvP-6" edge="1">
                    <mxGeometry relative="1" as="geometry"/>
                </mxCell>
                <mxCell id="fCxBIMffFWd8VoigTxvP-24" value="" style="edgeStyle=orthogonalEdgeStyle;rounded=0;orthogonalLoop=1;jettySize=auto;html=1;fontStyle=0;fontSize=13;" parent="1" source="fCxBIMffFWd8VoigTxvP-21" target="fCxBIMffFWd8VoigTxvP-23" edge="1">
                    <mxGeometry relative="1" as="geometry"/>
                </mxCell>
                <mxCell id="fCxBIMffFWd8VoigTxvP-21" value="Download Code" style="whiteSpace=wrap;html=1;rounded=0;fillColor=#dae8fc;strokeColor=#6c8ebf;fontColor=#000000;fontStyle=0;fontSize=13;" parent="1" vertex="1">
                    <mxGeometry x="940" y="150" width="80" height="60" as="geometry"/>
                </mxCell>
                <mxCell id="fCxBIMffFWd8VoigTxvP-30" value="" style="edgeStyle=orthogonalEdgeStyle;rounded=0;orthogonalLoop=1;jettySize=auto;html=1;fontStyle=0;fontSize=13;" parent="1" source="fCxBIMffFWd8VoigTxvP-26" target="fCxBIMffFWd8VoigTxvP-29" edge="1">
                    <mxGeometry relative="1" as="geometry"/>
                </mxCell>
                <mxCell id="fCxBIMffFWd8VoigTxvP-26" value="Download Docker" style="whiteSpace=wrap;html=1;rounded=0;fillColor=#e1d5e7;strokeColor=#9673a6;fontColor=#000000;fontStyle=0;fontSize=13;" parent="1" vertex="1">
                    <mxGeometry x="1100" y="150" width="80" height="60" as="geometry"/>
                </mxCell>
            </root>
        </mxGraphModel>
    </diagram>
</mxfile>